<?xml version="1.0" encoding="UTF-8"?>
<!DOCTYPE svg PUBLIC "-//W3C//DTD SVG 1.1//EN" "http://www.w3.org/Graphics/SVG/1.1/DTD/svg11.dtd">
<svg xmlns="http://www.w3.org/2000/svg" version="1.1" width="977px" height="713px" style="shape-rendering:geometricPrecision; text-rendering:geometricPrecision; image-rendering:optimizeQuality; fill-rule:evenodd; clip-rule:evenodd" xmlns:xlink="http://www.w3.org/1999/xlink">
<g><path style="opacity:0.97" fill="#f06321" d="M 782.5,-0.5 C 786.167,-0.5 789.833,-0.5 793.5,-0.5C 901.556,43.8847 962.556,124.218 976.5,240.5C 976.5,244.167 976.5,247.833 976.5,251.5C 972.186,261.658 964.519,265.491 953.5,263C 946.6,260.101 942.766,254.934 942,247.5C 935.802,174.255 904.302,114.755 847.5,69C 827.55,53.689 805.55,42.0223 781.5,34C 770.055,26.9822 767.555,17.4822 774,5.5C 776.671,3.09757 779.505,1.09757 782.5,-0.5 Z"/></g>
<g><path style="opacity:0.969" fill="#f06321" d="M 769.5,52.5 C 776.291,52.0409 782.624,53.5409 788.5,57C 868.726,94.7687 913.393,157.935 922.5,246.5C 920.9,260.249 913.234,265.749 899.5,263C 895.658,261.332 892.491,258.832 890,255.5C 884.697,196.046 858.864,147.88 812.5,111C 797.849,100.84 782.182,92.5067 765.5,86C 757.202,80.1044 754.702,72.271 758,62.5C 760.818,57.8388 764.651,54.5055 769.5,52.5 Z"/></g>
<g><path style="opacity:0.968" fill="#f06321" d="M 757.5,102.5 C 760.941,102.301 764.274,102.801 767.5,104C 825.672,130.518 860.172,175.351 871,238.5C 873.825,256.337 866.325,264.504 848.5,263C 845.098,261.6 842.264,259.433 840,256.5C 832.824,197.772 802.158,156.772 748,133.5C 739.402,119.329 742.568,108.995 757.5,102.5 Z"/></g>
<g><path style="opacity:0.985" fill="#000000" d="M 147.5,151.5 C 203.818,152.813 246.818,177.146 276.5,224.5C 275.395,225.892 274.061,227.059 272.5,228C 254.257,236.705 236.09,245.539 218,254.5C 193.246,223.248 161.746,213.081 123.5,224C 112.278,228.573 102.778,235.406 95,244.5C 93.4426,247.172 92.276,250.005 91.5,253C 94.725,263.893 101.725,271.226 112.5,275C 117.375,276.802 122.375,278.135 127.5,279C 152.981,280.904 177.648,277.238 201.5,268C 214.617,262.608 227.617,256.942 240.5,251C 280.821,229.34 321.821,209.006 363.5,190C 389.946,177.805 417.613,169.805 446.5,166C 472.457,162.438 497.124,166.438 520.5,178C 545.417,193.97 559.583,216.803 563,246.5C 563.693,279.166 564.36,311.833 565,344.5C 569.118,368.609 582.618,384.776 605.5,393C 618.785,394.143 631.452,391.81 643.5,386C 685.667,365.167 717.167,333.667 738,291.5C 743.605,278.273 745.271,264.606 743,250.5C 737.727,231.681 725.394,220.681 706,217.5C 681.473,221.691 668.64,236.191 667.5,261C 668.392,282.347 675.226,301.514 688,318.5C 692.122,324.291 696.622,329.791 701.5,335C 686.559,351.63 669.225,365.13 649.5,375.5C 608.906,333.14 594.739,283.14 607,225.5C 620.452,187.049 646.952,162.882 686.5,153C 739.852,146.923 778.018,168.09 801,216.5C 813.874,252.963 811.874,288.63 795,323.5C 770.901,371.264 736.068,409.097 690.5,437C 669.798,449.456 647.465,457.123 623.5,460C 583.025,462.342 550.525,447.508 526,415.5C 511.667,396.182 503.001,374.516 500,350.5C 498.781,318.517 498.114,286.517 498,254.5C 496.915,244.085 491.415,237.251 481.5,234C 471.252,231.094 460.919,230.761 450.5,233C 436.855,235.078 423.522,238.411 410.5,243C 391.567,250.801 372.9,259.135 354.5,268C 316.568,287.799 278.235,306.799 239.5,325C 200.854,341.941 160.521,348.608 118.5,345C 73.7429,339.552 43.9096,315.719 29,273.5C 22.9962,249.857 26.6629,227.857 40,207.5C 67.1279,172.351 102.961,153.684 147.5,151.5 Z"/></g>
<g><path style="opacity:0.954" fill="#000000" d="M 355.5,151.5 C 367.341,149.996 377.508,153.33 386,161.5C 388.78,164.392 390.446,167.726 391,171.5C 370.196,179.401 349.863,188.401 330,198.5C 325.137,175.07 333.637,159.403 355.5,151.5 Z"/></g>
<g><path style="opacity:0.981" fill="#000000" d="M -0.5,318.5 C -0.5,309.5 -0.5,300.5 -0.5,291.5C 2.21665,264.188 11.3833,239.188 27,216.5C 12.8012,256.211 20.6346,291.045 50.5,321C 56.7179,326.219 63.2179,331.052 70,335.5C 89.6108,378.391 122.777,396.224 169.5,389C 197.34,380.496 217.007,362.829 228.5,336C 252.434,326.534 275.767,315.701 298.5,303.5C 298.441,356.451 277.441,398.951 235.5,431C 183.793,464.563 130.46,467.229 75.5,439C 30.5653,411.318 5.23192,371.151 -0.5,318.5 Z"/></g>
<g><path style="opacity:0.988" fill="#000000" d="M 393.5,256.5 C 394.665,315.332 394.832,374.332 394,433.5C 388.812,453.345 375.978,462.178 355.5,460C 341.667,456.833 333.167,448.333 330,434.5C 329.333,385.5 329.333,336.5 330,287.5C 350.936,276.447 372.103,266.114 393.5,256.5 Z"/></g>
<g><path style="opacity:0.98" fill="#000000" d="M 872.5,330.5 C 893.149,329.23 905.982,338.563 911,358.5C 911.971,368.929 909.638,378.595 904,387.5C 883.385,423.116 853.218,446.283 813.5,457C 775.417,463.312 740.75,455.146 709.5,432.5C 728.677,418.995 746.011,403.329 761.5,385.5C 776.507,393.563 791.84,394.73 807.5,389C 827.333,379.833 841.833,365.333 851,345.5C 856.438,337.875 863.605,332.875 872.5,330.5 Z"/></g>
<g><path style="opacity:0.97" fill="#000000" d="M 483.5,474.5 C 488.25,474.27 492.584,475.437 496.5,478C 498.988,483.315 501.321,488.648 503.5,494C 520.462,495.244 537.462,495.911 554.5,496C 564.089,499.609 567.256,506.442 564,516.5C 562.221,520.612 559.388,523.778 555.5,526C 550.607,527.512 545.607,528.512 540.5,529C 530.327,537.828 522.494,548.328 517,560.5C 515.272,567.203 517.439,572.037 523.5,575C 536.846,575.167 550.179,575.667 563.5,576.5C 559.064,587.31 554.731,598.144 550.5,609C 534.793,609.901 519.127,609.568 503.5,608C 489.81,602.963 481.977,593.13 480,578.5C 478.499,565.67 481.499,554.003 489,543.5C 492.713,538.576 496.546,533.742 500.5,529C 496.129,528.172 491.795,528.339 487.5,529.5C 485.276,535.615 482.776,541.615 480,547.5C 472.06,559.075 462.726,560.408 452,551.5C 449.027,546.367 448.694,541.033 451,535.5C 457.857,516.792 465.523,498.459 474,480.5C 476.855,477.773 480.022,475.773 483.5,474.5 Z"/></g>
<g><path style="opacity:0.972" fill="#000000" d="M 542.5,712.5 C 540.167,712.5 537.833,712.5 535.5,712.5C 525.717,708.936 522.217,701.936 525,691.5C 549.39,629.054 574.056,566.721 599,504.5C 604.676,496.16 612.51,493.327 622.5,496C 626.275,497.442 629.108,499.942 631,503.5C 641.422,493.388 653.589,490.555 667.5,495C 678.318,500.165 685.152,508.665 688,520.5C 693.908,552.071 685.408,578.904 662.5,601C 652.799,607.259 642.133,610.093 630.5,609.5C 622.638,609.382 614.971,608.216 607.5,606C 604.688,604.023 602.022,601.856 599.5,599.5C 585.685,633.137 571.851,666.803 558,700.5C 554.356,706.665 549.189,710.665 542.5,712.5 Z M 636.5,523.5 C 648.866,520.717 655.199,525.551 655.5,538C 654.397,552.203 648.731,564.203 638.5,574C 627.336,579.234 618.336,576.9 611.5,567C 616.134,555.436 620.967,543.936 626,532.5C 628.84,528.673 632.34,525.673 636.5,523.5 Z"/></g>
<g><path style="opacity:0.97" fill="#000000" d="M 793.5,492.5 C 807.634,491.983 818.468,497.649 826,509.5C 838.236,495.755 853.403,490.588 871.5,494C 889.157,499.335 896.657,511.169 894,529.5C 888.754,544.907 882.92,560.074 876.5,575C 883.167,575.333 889.833,575.667 896.5,576C 909.959,577.47 914.459,584.636 910,597.5C 905.934,605.212 899.434,609.046 890.5,609C 878.167,609.667 865.833,609.667 853.5,609C 839.683,606.532 833.85,598.366 836,584.5C 841.77,567.856 847.937,551.356 854.5,535C 853.998,529.165 850.831,525.998 845,525.5C 833.608,528.555 825.608,535.555 821,546.5C 814.196,563.913 807.196,581.247 800,598.5C 792.594,610.889 782.427,614.056 769.5,608C 763.871,601.489 763.038,594.322 767,586.5C 774.131,568.94 780.964,551.273 787.5,533.5C 784.243,526.356 778.91,524.19 771.5,527C 763.948,531.225 758.448,537.392 755,545.5C 748.667,561.5 742.333,577.5 736,593.5C 732.606,602.898 726.106,608.732 716.5,611C 696.833,611.667 677.167,611.667 657.5,611C 670.127,603.207 679.793,592.707 686.5,579.5C 692.463,578.504 698.463,578.171 704.5,578.5C 713.166,554.672 722.333,531.006 732,507.5C 737.01,497.08 745.177,493.246 756.5,496C 761.4,497.902 764.567,501.402 766,506.5C 773.58,498.461 782.746,493.794 793.5,492.5 Z"/></g>
</svg>
